<?xml version="1.0" encoding="utf-8"?>
<!-- Generator: Adobe Illustrator 26.5.0, SVG Export Plug-In . SVG Version: 6.00 Build 0)  -->
<svg version="1.1" id="Capa_1" xmlns="http://www.w3.org/2000/svg" xmlns:xlink="http://www.w3.org/1999/xlink" x="0px" y="0px"
	 viewBox="0 0 188.9 67.5" style="enable-background:new 0 0 188.9 67.5;" xml:space="preserve">
<style type="text/css">
	.st0{fill:#A3A3A5;}
</style>
<path class="st0" d="M61.2,13.1c0,9.6,0.1,13.1,0.4,13.4c0.3,0.3,1.1,0.5,1.8,0.5c1.3,0,1.4,0,1.5,1.6c0.2,1.9-0.3,2.2-3.4,2.2
	c-2.6,0-3.9-0.5-4.5-1.8c-0.3-0.6-0.4-5.5-0.4-14.9v-14H59h2.2V13.1z"/>
<path class="st0" d="M141,13.3c0,14.5-0.1,13.7,2.2,13.7c1.1,0,1.5,0.6,1.5,2.3c0,1.2-0.6,1.5-3.9,1.5c-2.7,0-3.7-0.6-4.3-2.6
	c-0.2-0.8-0.4-6.7-0.4-14.8V0.1h2.4h2.4V13.3z"/>
<path class="st0" d="M152.6,12.6c0,7.2,0.1,12.9,0.4,13.4c0.3,0.8,0.6,1,1.8,1c1.4,0,1.5,0.1,1.7,1.4c0.3,1.9-0.4,2.3-3.5,2.3
	c-2.1,0-2.7-0.2-3.6-0.9l-1-0.9l-0.1-14.4l-0.1-14.4h2.3h2.2V12.6z"/>
<path class="st0" d="M19,40.6v2l-6.7,0.1c-8,0.1-7.7,0-7.7,4.6v3.1h6.4h6.4v2v2h-6.4H4.7l-0.1,6.2l-0.1,6.2l-2.3,0.1L-0.1,67V55.3
	c0-11.1,0-11.8,0.7-13.3c1.5-3,2.7-3.4,11.5-3.4l6.9,0V40.6z"/>
<path class="st0" d="M46.5,46.2c1.9,0.8,3.1,1.9,4,3.9c0.7,1.5,0.8,2.5,0.9,9.3l0.1,7.6h-2.2h-2.2L47,59.8c-0.1-8-0.3-8.5-2.2-9.7
	c-0.9-0.6-1.8-0.7-4-0.7h-2.9v8.4c0,4.6-0.1,8.6-0.3,8.9c-0.2,0.3-0.9,0.4-2.3,0.4l-2-0.1V57c0-11.3-0.1-10.8,3.2-11.3
	C39.3,45.2,44.8,45.5,46.5,46.2z"/>
<path class="st0" d="M91.4,46c1.8,0.6,4,2.7,4.6,4.6c0.3,0.9,0.6,4.4,0.6,8.9l0.2,7.5h-2.2h-2.2l-0.1-7.1c-0.1-5.9-0.2-7.3-0.8-8.3
	c-1-1.8-2.4-2.4-5.7-2.2L83,49.5l-0.1,8.7L82.8,67h-2.2h-2.2l0.1-9.9c0.1-11.3,0-10.9,3.3-11.4C84.2,45.3,89.5,45.5,91.4,46z"/>
<path class="st0" d="M115.6,45.9c0.8,0.3,1.5,0.7,1.5,0.9c0,0.3-1.1,3.3-1.3,3.3c0,0-0.8-0.3-1.8-0.6c-5.4-1.6-8.5,0.8-8.5,6.8
	c0,5.7,2.7,7.9,8.2,6.5c1.3-0.3,2.4-0.5,2.6-0.4c0.5,0.3,1.2,2.4,1,2.9c-0.5,1.3-7.4,2.2-10.6,1.3c-1.8-0.5-3.8-2.3-4.8-4.3
	c-0.7-1.5-0.8-2.3-0.9-5.8c0-3.7,0.1-4.2,1-6.2c1.9-3.9,5-5.6,9.5-5.3C113,45.2,114.7,45.6,115.6,45.9z"/>
<path class="st0" d="M165.1,46.2c4.6,1.9,4.6,2.2,1.8,5.5c-2.8-1.9-4.7-2.3-8.1-2.1c-0.1,4.4-0.2,13.1-0.2,17.5c-1.1,0-3.3,0-4.4,0
	v-9.7c0-11.1,0-11.2,3-11.7C159.2,45.3,163,45.5,165.1,46.2z"/>
<polygon class="st0" points="27.5,56.5 27.5,67 25.3,67 23.1,67 23.1,56.5 23.1,46 25.3,46 27.5,46 "/>
<polygon class="st0" points="126.2,56.5 126.2,67 124,67 121.8,67 121.8,56.5 121.8,46 124,46 126.2,46 "/>
<path class="st0" d="M95.1,4.6C95.2,8.9,95.2,9,96,8.7c7.9-2,12.9,1.5,13.6,9.3c0.4,5.3-1.3,9.6-4.6,11.6c-1.6,0.9-2.3,1.1-5.4,1.2
	c-3.6,0.2-7.7-0.5-8.8-1.5c-0.4-0.3-0.5-3.3-0.5-14.8V0.1l2.3,0.1l2.3,0.1L95.1,4.6z M95.8,12.5c-0.6,0.2-0.7,0.8-0.7,7.1
	c0,7.9-0.3,7.4,3.5,7.4c4.1,0,6.2-2.5,6.2-7.5c0-3.3-0.9-5.6-2.6-6.6C101.2,12.3,97.5,12.1,95.8,12.5z"/>
<path class="st0" d="M48.1,9.3c0.9,0.5,1.9,1.5,2.3,2.4c0.8,1.5,0.9,2,1,9.1c0.1,5.9,0,7.7-0.4,8.2c-0.9,1.2-4.8,1.9-9.2,1.7
	c-3.4-0.1-4.2-0.3-5.6-1.1c-2.1-1.2-3-2.9-3-5.6c0-2.6,0.7-4.3,2.3-5.5c1.9-1.4,3.5-1.8,7.5-1.8h3.7v-1.4c0-1.8-1.1-2.9-3.1-3.3
	c-1.2-0.2-5.8,0.3-7.1,0.8c-0.4,0.1-0.6-0.2-0.8-0.9c-0.1-0.6-0.3-1.4-0.4-1.7C34.6,8.3,44.9,7.4,48.1,9.3z M39.3,21
	c-2,1.2-2.1,4.3-0.2,5.6c1,0.7,4.7,0.9,6.6,0.4c1-0.3,1-0.3,1-3.5v-3.2h-3.1C41.2,20.2,40.2,20.4,39.3,21z"/>
<path class="st0" d="M80.2,8.5c2.3,0.5,3.9,1.8,4.7,3.9c0.5,1.3,0.6,3,0.5,9.2l-0.1,7.6l-1.5,0.8c-1.2,0.5-2.5,0.8-5.8,0.9
	c-5.2,0.2-7.5-0.4-9.2-2.4c-2.7-3.1-1.5-8.6,2.3-10.7c0.8-0.5,2.5-0.7,5.4-0.8l4.3-0.2l0-1.5c-0.1-2.8-2.5-3.7-7.5-2.8
	c-1.7,0.3-3.2,0.5-3.3,0.3c-0.1-0.2-0.2-0.9-0.4-1.6c-0.3-1.7,0.2-2,3.5-2.5C76.1,8.1,78.1,8.1,80.2,8.5z M73.1,21.2
	c-1,0.9-1.2,1.2-1,2.7c0.1,2.4,1.4,3.3,4.5,3.3c1.3,0,2.8-0.2,3.4-0.3c1-0.3,1-0.3,1-3.5v-3.2h-3.3C74.6,20.2,74.2,20.3,73.1,21.2z"
	/>
<path class="st0" d="M125.7,8.7c3.3,0.7,5.6,3.4,6.1,7.3c0.3,2.3-0.3,4.2-1.5,4.8c-0.6,0.3-3.2,0.4-6.9,0.4h-6l0.3,1.2
	c0.9,4.2,4.2,5.8,9,4.3c2.4-0.7,2.3-0.8,2.9,0.6c0.9,1.7,0.7,2.1-1,2.9c-1.2,0.6-2.5,0.7-5.5,0.7c-3.4,0-4.1-0.1-5.5-0.9
	c-3.3-1.8-4.8-5.5-4.5-11.1C113.5,11.1,118.5,7.1,125.7,8.7z M120.9,12.7c-1.5,0.8-3,2.8-3,4.1c0,0.9,0,0.9,4.8,0.9
	c4.6,0,4.8,0,4.8-0.8c0-1.1-0.9-3.1-1.7-3.9C124.7,12.1,122.4,11.9,120.9,12.7z"/>
<path class="st0" d="M172.2,8.7c2.2,0.7,4.1,2.5,4.4,4.4c0.1,0.7,0.2,4.7,0.1,8.8l-0.1,7.5l-1.5,0.6c-2.1,0.8-9.7,1.1-11.6,0.5
	c-3.3-1.1-4.7-3-4.7-6.4c0-2.5,0.7-4.1,2.4-5.4c1.9-1.4,3.4-1.8,7.4-1.8h3.7v-1.3c0-1.7-1.3-3.1-3.1-3.4c-1.2-0.2-5.8,0.3-7.1,0.8
	c-0.4,0.2-0.7-0.2-1-1.3c-0.2-0.9-0.3-1.7-0.2-1.9c0.2-0.3,1.1-0.5,4.8-1.3C167.6,8,170.5,8.2,172.2,8.7z M165.4,20.6
	c-1.9,0.8-2.6,3.7-1.3,5.3c0.8,1,3.1,1.6,5.3,1.3c3.1-0.4,3-0.2,3-3.8v-3.2l-3.1,0C167.6,20.3,165.8,20.4,165.4,20.6z"/>
<path class="st0" d="M68.4,45.4c2.3,0.5,4.2,2.2,4.8,4.2c0.2,0.8,0.4,4.5,0.4,8.5c0,7,0,7.1-0.8,7.6c-1.5,0.9-4.8,1.4-8.8,1.3
	c-3.2-0.1-4.1-0.3-5.4-1c-3.7-2.1-4.1-7.5-0.9-10.4c1.8-1.7,3.4-2.1,7.7-2.1c3.9,0,4.2-0.2,3.3-2.5c-0.7-1.8-2.2-2.4-5.5-2.1
	c-1.4,0.1-3,0.3-3.6,0.5c-1,0.3-1.2,0.2-1.5-0.6c-0.2-0.5-0.4-1.3-0.4-1.8c0-0.7,0.3-0.9,2-1.3C63.8,44.9,65.8,44.8,68.4,45.4z
	 M61.4,57.7c-1,0.9-1.1,1.2-1,2.7c0.1,2.4,1.4,3.2,4.7,3.2c3.8-0.1,4.1-0.3,4.1-3.8v-2.9h-3.3C62.8,56.7,62.5,56.8,61.4,57.7z"/>
<path class="st0" d="M145.6,46c2.9,1.5,4.2,3.8,4.2,7.6c0,1.5-0.1,2.1-0.4,2.5c-0.1,0.1-0.3,0.4-0.3,0.4c-0.2,0.3-0.5,0.4-0.7,0.5
	c-1.9,0.7-10.4,0.4-12.8,0.5c0.4,6.2,5.7,6.7,11.3,4.8c0.3,0,1.4,2.2,1.4,2.9c-3.4,3.2-14.1,2.5-15.9-2.6
	C128.8,53,134.1,41.5,145.6,46z M139.3,49c-1.9,0.8-3.2,3.2-3.2,5.2c2.4,0,7.3,0,9.8,0C145.7,50.4,142.8,47.7,139.3,49z"/>
<path class="st0" d="M176,46.1c-9.8,2.8-8.8,22.8,3.3,21.4C192.8,68.6,192.3,41.1,176,46.1z M179.2,64.1c-7.2,0.9-7.8-12.2-2-14
	C187,46.7,187.3,64.8,179.2,64.1z"/>
<circle class="st0" cx="25.3" cy="40.6" r="2.6"/>
<circle class="st0" cx="124" cy="40.6" r="2.6"/>
<path class="st0" d="M31.7,1.5v4.1L20.6,5.8c0,0-3.2,0-3.7,2.2v5.6h13.1v4H17v13.2h-5V7c0,0,1-5.4,6.9-5.4L31.7,1.5z"/>
</svg>
