<?xml version="1.0" encoding="utf-8"?>
<!-- Generator: Adobe Illustrator 26.5.0, SVG Export Plug-In . SVG Version: 6.00 Build 0)  -->
<svg version="1.1" id="Capa_1" xmlns="http://www.w3.org/2000/svg" xmlns:xlink="http://www.w3.org/1999/xlink" x="0px" y="0px"
	 viewBox="0 0 80 80" style="enable-background:new 0 0 80 80;" xml:space="preserve">
<style type="text/css">
	.st0{fill:#939598;}
</style>
<g>
	<path class="st0" d="M44.8,57.1c-0.4,0-0.8,0-1.2,0c-0.7,0-1.3,0.1-1.8,0.2c-2.4,0.4-4,1.3-4,3.1c0,1.6,1.2,2.5,2.9,2.5
		c2,0,3.4-1.2,4-2.5c0,0,0,0,0,0c0,0,0,0,0,0c0,0,0.1-0.2,0.1-0.2c0.1-0.3,0.1-0.7,0.1-1h0V57.1z"/>
	<path class="st0" d="M66.7,0H13.3C6,0,0,6,0,13.3v53.3C0,74,6,80,13.3,80h53.3C74,80,80,74,80,66.7V13.3C80,6,74,0,66.7,0z
		 M65.4,40.5h5.9l-5.3,5.2h-4.3L65.4,40.5z M13.3,66.2H7.1V40.5h6.2V66.2z M29.1,66.2c-0.8,0.3-1.5,0.6-3.4,0.6
		c-2.1,0-3.9-0.8-4.9-1.8c-1.2-1.2-1.7-3.1-1.7-5.7v-7.9h-2.8v-4.4h2.8v-6.5h6v6.5h3.9v4.4h-3.9v6.8c0,2.4,0.5,3.7,2.7,3.7
		c0.6,0,1.1-0.1,1.3-0.2V66.2z M50.5,66.3h-5.1l-0.7-2h-0.1c-1.4,1.5-3.6,2.5-6.3,2.5c-4.4,0-6.9-3-6.9-5.9c0-5,5-7.5,13.1-7.5v-0.2
		c0-0.9-0.8-2.7-4.4-2.7c-2.2,0-4.6,0.7-6,1.5L33,48.2c1.6-0.9,4.4-1.8,8.2-1.8c6.9,0,9.2,3.8,9.2,8.5V66.3z M73.8,66.3h-4.9
		l-0.8-2.8c-0.2,0.3-0.5,0.6-0.8,1c-0.4,0.4-0.8,0.7-1.3,1c-0.5,0.3-1.2,0.6-1.9,0.8c-0.7,0.2-1.6,0.3-2.5,0.3c-1.1,0-2.1-0.2-3-0.5
		c-0.9-0.3-1.7-0.8-2.4-1.5c-0.7-0.7-1.2-1.5-1.6-2.6C54.2,61,54,59.7,54,58.2V46.9h6.1v10.2c0,3,1.1,4.8,3.6,4.8
		c2,0,3.2-1.3,3.7-2.5c0.2-0.4,0.2-0.8,0.2-1.2V46.9h6.1V66.3z"/>
</g>
</svg>
