<?xml version="1.0" encoding="utf-8"?>
<!-- Generator: Adobe Illustrator 26.5.0, SVG Export Plug-In . SVG Version: 6.00 Build 0)  -->
<svg version="1.1" id="Capa_1" xmlns="http://www.w3.org/2000/svg" xmlns:xlink="http://www.w3.org/1999/xlink" x="0px" y="0px"
	 viewBox="0 0 182 51.1" style="enable-background:new 0 0 182 51.1;" xml:space="preserve">
<style type="text/css">
	.st0{fill-rule:evenodd;clip-rule:evenodd;fill:#E7392E;}
</style>
<g>
	<path class="st0" d="M49.6,11.6c0,0.1,0,0.1,0,0.2v11c0,0.3-0.2,0.6-0.4,0.7L40,28.7v10.5c0,0.3-0.2,0.5-0.4,0.7L20.4,51
		c0,0-0.1,0-0.1,0.1c0,0,0,0-0.1,0c-0.1,0-0.3,0-0.4,0c0,0,0,0-0.1,0c0,0-0.1,0-0.1-0.1L0.4,39.9C0.1,39.8,0,39.5,0,39.2V6.3
		c0-0.1,0-0.1,0-0.2c0,0,0,0,0-0.1c0,0,0-0.1,0.1-0.1c0,0,0,0,0.1-0.1c0,0,0-0.1,0.1-0.1c0,0,0.1,0,0.1-0.1c0,0,0.1-0.1,0.1-0.1h0
		L10,0.1c0.2-0.1,0.6-0.1,0.8,0l9.6,5.5h0c0,0,0.1,0,0.1,0.1c0,0,0.1,0,0.1,0.1c0,0,0,0.1,0.1,0.1c0,0,0,0,0.1,0.1
		c0,0,0,0.1,0.1,0.1c0,0,0,0,0,0.1c0,0.1,0,0.1,0,0.2v20.6l8-4.6V11.8c0-0.1,0-0.1,0-0.2c0,0,0,0,0-0.1c0,0,0-0.1,0.1-0.1
		c0,0,0,0,0.1-0.1c0,0,0-0.1,0.1-0.1c0,0,0.1,0,0.1-0.1c0,0,0.1-0.1,0.1-0.1h0l9.6-5.5c0.2-0.1,0.6-0.1,0.8,0l9.6,5.5
		c0,0,0.1,0,0.1,0.1c0,0,0.1,0,0.1,0.1c0,0,0,0.1,0.1,0.1c0,0,0,0,0.1,0.1C49.6,11.4,49.6,11.5,49.6,11.6
		C49.6,11.5,49.6,11.5,49.6,11.6z M48,22.3v-9.1l-3.4,1.9L40,17.8v9.1L48,22.3L48,22.3z M38.4,38.8v-9.1l-4.6,2.6l-13,7.4v9.2
		C20.8,48.9,38.4,38.8,38.4,38.8z M1.6,7.7v31.1l17.6,10.1v-9.2L10,34.5l0,0l0,0c0,0-0.1,0-0.1-0.1c0,0-0.1,0-0.1-0.1l0,0
		c0,0,0-0.1-0.1-0.1c0,0,0,0-0.1-0.1l0,0c0,0,0-0.1,0-0.1c0,0,0-0.1,0-0.1v0c0,0,0-0.1,0-0.1c0,0,0-0.1,0-0.1v0V12.3L5,9.7L1.6,7.7
		L1.6,7.7z M10.4,1.7l-8,4.6l8,4.6l8-4.6L10.4,1.7L10.4,1.7z M14.6,30.5l4.6-2.7V7.7l-3.4,1.9l-4.6,2.7v20.1
		C11.2,32.4,14.6,30.5,14.6,30.5z M39.2,7.2l-8,4.6l8,4.6l8-4.6C47.2,11.8,39.2,7.2,39.2,7.2z M38.4,17.8l-4.6-2.7l-3.4-1.9v9.1
		l4.6,2.7l3.4,1.9C38.4,26.9,38.4,17.8,38.4,17.8z M20,38.3l11.7-6.7l5.9-3.4l-8-4.6L20.4,29L12,33.8C12,33.8,20,38.3,20,38.3z"/>
	<path class="st0" d="M73.4,12.3v23h8.3v4H68.9v-27C68.9,12.3,73.4,12.3,73.4,12.3z M97.4,23.8v-2.4h4.2v18h-4.2v-2.4
		c-0.6,0.9-1.4,1.6-2.4,2.1c-1,0.5-2.1,0.8-3.1,0.8c-1.4,0-2.6-0.2-3.7-0.8C87,38.6,86,37.9,85.2,37c-0.8-0.9-1.5-1.9-1.9-3
		c-0.5-1.2-0.7-2.4-0.7-3.6c0-1.3,0.2-2.5,0.7-3.6c0.4-1.1,1.1-2.1,1.9-3c0.8-0.9,1.8-1.6,2.9-2.1c1.1-0.5,2.4-0.8,3.7-0.8
		c1.1,0,2.1,0.3,3.1,0.8C96,22.2,96.8,22.9,97.4,23.8L97.4,23.8z M97,32.6c0.3-0.7,0.4-1.4,0.4-2.2c0-0.8-0.1-1.5-0.4-2.2
		c-0.2-0.7-0.6-1.3-1.1-1.8c-0.5-0.5-1-0.9-1.7-1.2c-0.7-0.3-1.4-0.5-2.2-0.5c-0.8,0-1.5,0.2-2.2,0.5c-0.6,0.3-1.2,0.7-1.7,1.2
		c-0.5,0.5-0.8,1.1-1.1,1.8c-0.2,0.7-0.4,1.5-0.4,2.2c0,0.8,0.1,1.5,0.4,2.2c0.2,0.7,0.6,1.3,1.1,1.8c0.5,0.5,1,0.9,1.7,1.2
		c0.6,0.3,1.4,0.5,2.2,0.5s1.5-0.2,2.2-0.5c0.6-0.3,1.2-0.7,1.7-1.2C96.4,33.9,96.8,33.2,97,32.6z M104.9,39.4v-18h11.4v4.1h-7.2
		v13.9L104.9,39.4L104.9,39.4z M131.6,23.8v-2.4h4.2v18h-4.2v-2.4c-0.6,0.9-1.4,1.6-2.4,2.1c-1,0.5-2.1,0.8-3.1,0.8
		c-1.4,0-2.6-0.2-3.7-0.8c-1.1-0.5-2.1-1.2-2.9-2.1c-0.8-0.9-1.5-1.9-1.9-3c-0.5-1.2-0.7-2.4-0.7-3.6c0-1.3,0.2-2.5,0.7-3.6
		c0.4-1.1,1.1-2.1,1.9-3c0.8-0.9,1.8-1.6,2.9-2.1c1.1-0.5,2.4-0.8,3.7-0.8c1.1,0,2.1,0.3,3.1,0.8C130.2,22.2,131,22.9,131.6,23.8z
		 M131.2,32.6c0.3-0.7,0.4-1.4,0.4-2.2c0-0.8-0.1-1.5-0.4-2.2c-0.2-0.7-0.6-1.3-1.1-1.8c-0.5-0.5-1-0.9-1.7-1.2
		c-0.7-0.3-1.4-0.5-2.2-0.5c-0.8,0-1.5,0.2-2.2,0.5c-0.6,0.3-1.2,0.7-1.7,1.2c-0.5,0.5-0.8,1.1-1.1,1.8c-0.2,0.7-0.4,1.5-0.4,2.2
		c0,0.8,0.1,1.5,0.4,2.2c0.2,0.7,0.6,1.3,1.1,1.8c0.5,0.5,1,0.9,1.7,1.2c0.6,0.3,1.4,0.5,2.2,0.5c0.8,0,1.5-0.2,2.2-0.5
		c0.6-0.3,1.2-0.7,1.7-1.2C130.6,33.9,131,33.2,131.2,32.6z M152.7,21.4h4.3l-6.9,18h-5.3l-6.9-18h4.3l5.3,13.8L152.7,21.4z
		 M166.1,20.9c5.7,0,9.6,5.1,8.9,11h-14c0,1.6,1.6,4.6,5.3,4.6c3.2,0,5.3-2.8,5.3-2.8l2.8,2.2c-2.5,2.7-4.6,4-7.9,4
		c-5.8,0-9.8-3.7-9.8-9.5C156.9,25.2,161,20.9,166.1,20.9L166.1,20.9z M161.1,28.8h10.1c0-0.3-0.6-4.6-5.1-4.6
		C161.6,24.3,161.1,28.5,161.1,28.8z M177.8,39.4v-27h4.2v27H177.8z"/>
</g>
</svg>
