<?xml version="1.0" encoding="utf-8"?>
<!-- Generator: Adobe Illustrator 26.5.0, SVG Export Plug-In . SVG Version: 6.00 Build 0)  -->
<svg version="1.1" id="Capa_1" xmlns="http://www.w3.org/2000/svg" xmlns:xlink="http://www.w3.org/1999/xlink" x="0px" y="0px"
	 viewBox="0 0 313.2 40.7" style="enable-background:new 0 0 313.2 40.7;" xml:space="preserve">
<style type="text/css">
	.st0{fill:#1672B3;}
	.st1{fill:#FFFFFF;}
</style>
<polygon class="st0" points="27.4,31.4 27.4,40.8 0,24.1 0,15 "/>
<polygon class="st0" points="39.7,31.4 39.7,40.8 67,24.1 67,15 "/>
<g>
	<path class="st1" d="M134.4,2.3c2.7,1.5,4.9,3.6,6.4,6.4c1.6,2.8,2.3,6.1,2.3,10v18.9c0,0.8-0.3,1.4-0.8,2c-0.5,0.5-1.2,0.8-2,0.8
		c-0.8,0-1.5-0.3-2-0.8c-0.5-0.5-0.8-1.2-0.8-2V18.6c0-4.3-1.2-7.6-3.6-9.9s-5.5-3.4-9.4-3.4c-2.4,0-4.5,0.5-6.4,1.4
		c-1.9,0.9-3.4,2.2-4.6,3.8s-1.7,3.4-1.7,5.4v21.6c0,0.8-0.3,1.5-0.8,2c-0.5,0.5-1.2,0.8-2,0.8c-0.8,0-1.5-0.3-2-0.8
		c-0.5-0.5-0.8-1.2-0.8-2V3.3c0-0.8,0.3-1.5,0.8-2c0.5-0.5,1.2-0.8,2-0.8c0.8,0,1.5,0.3,2,0.8c0.5,0.5,0.8,1.2,0.8,2v2.5
		c1.6-1.8,3.5-3.2,5.8-4.2s4.8-1.5,7.4-1.5C128.6,0.1,131.7,0.8,134.4,2.3z"/>
	<path class="st1" d="M184.1,2.8c3.1,1.8,5.5,4.2,7.3,7.3c1.8,3.1,2.7,6.6,2.7,10.3v17.1c0,0.8-0.3,1.4-0.8,2s-1.2,0.8-2,0.8
		c-0.8,0-1.5-0.3-2-0.8c-0.5-0.5-0.8-1.2-0.8-2v-4.4c-1.7,2.3-3.9,4.2-6.5,5.5c-2.6,1.3-5.5,2-8.7,2c-3.7,0-7-0.9-10-2.7
		c-3-1.8-5.3-4.2-7.1-7.3c-1.7-3.1-2.6-6.5-2.6-10.3s0.9-7.2,2.7-10.3c1.8-3.1,4.2-5.5,7.3-7.3c3.1-1.8,6.5-2.7,10.3-2.7
		C177.5,0.1,181,1,184.1,2.8z M181.3,33.7c2.2-1.3,4-3.1,5.3-5.4c1.3-2.3,1.9-4.9,1.9-7.8s-0.6-5.5-1.9-7.8c-1.3-2.3-3-4.1-5.3-5.5
		c-2.2-1.3-4.7-2-7.5-2c-2.8,0-5.3,0.7-7.5,2c-2.3,1.3-4,3.2-5.3,5.5c-1.3,2.3-1.9,4.9-1.9,7.8s0.6,5.5,1.9,7.8
		c1.3,2.3,3.1,4.1,5.3,5.4c2.3,1.3,4.8,2,7.5,2C176.5,35.6,179,35,181.3,33.7z"/>
	<path class="st1" d="M227.8,0.9c1.2,0.5,1.8,1.3,1.8,2.3c0,0.3,0,0.5-0.1,0.7c-0.2,0.7-0.5,1.1-0.9,1.4c-0.4,0.2-1,0.4-1.7,0.4
		c-0.4,0-1.2,0-2.3-0.1c-0.4-0.1-1-0.1-1.7-0.1c-3.6,0-6.6,1-8.9,2.9c-2.3,1.9-3.5,4.5-3.5,7.6v21.8c0,0.9-0.2,1.6-0.7,2
		c-0.5,0.5-1.2,0.7-2,0.7s-1.6-0.2-2-0.7c-0.5-0.5-0.7-1.2-0.7-2V3.3c0-0.9,0.2-1.6,0.7-2c0.5-0.5,1.2-0.7,2-0.7s1.6,0.2,2,0.7
		c0.5,0.5,0.7,1.2,0.7,2v3.2c1.4-2,3.2-3.6,5.4-4.7c2.2-1.1,4.5-1.7,7.1-1.7C225,0.1,226.6,0.3,227.8,0.9z"/>
	<path class="st1" d="M242.1,38.1c-3-1.8-5.4-4.2-7.1-7.3c-1.7-3.1-2.6-6.5-2.6-10.3c0-3.9,0.8-7.4,2.5-10.5
		c1.7-3.1,3.9-5.5,6.8-7.2c2.9-1.7,6.2-2.6,9.8-2.6c6.1,0,11,2.3,14.8,7c0.4,0.4,0.6,0.9,0.6,1.5c0,0.8-0.4,1.5-1.2,2
		c-0.4,0.3-0.9,0.4-1.4,0.4c-0.7,0-1.4-0.4-2.1-1.1c-1.5-1.6-3.1-2.8-4.8-3.6c-1.7-0.8-3.7-1.2-5.8-1.2c-2.7,0-5.1,0.6-7.1,1.9
		c-2.1,1.3-3.7,3.1-4.8,5.4c-1.1,2.3-1.7,5-1.7,7.9c0,2.9,0.6,5.5,1.8,7.8c1.2,2.3,2.9,4.1,5.1,5.4c2.2,1.3,4.7,2,7.5,2
		c3.9,0,7-1,9.4-3.1c0.6-0.5,1.3-0.8,2-0.8c0.6,0,1.1,0.2,1.6,0.6c0.7,0.6,1,1.2,1,2c0,0.6-0.2,1.2-0.7,1.6
		c-3.5,3.3-7.9,4.9-13.3,4.9C248.5,40.7,245.1,39.8,242.1,38.1z"/>
	<path class="st1" d="M304.5,2.7c2.8,1.7,4.9,4,6.4,7c1.5,3,2.3,6.3,2.3,10.1c0,0.8-0.2,1.4-0.7,1.9c-0.5,0.5-1.1,0.7-1.9,0.7h-29.4
		c0.4,4,1.9,7.2,4.7,9.7c2.7,2.5,6.1,3.7,10.2,3.7c1.7,0,3.5-0.3,5.3-0.9c1.8-0.6,3.2-1.4,4.3-2.3c0.6-0.5,1.3-0.7,2-0.7
		c0.5,0,1.1,0.2,1.6,0.6c0.6,0.6,0.9,1.2,0.9,2c0,0.6-0.3,1.2-0.8,1.7c-1.6,1.4-3.6,2.5-6.1,3.4c-2.5,0.9-4.9,1.3-7.1,1.3
		c-3.9,0-7.4-0.9-10.4-2.6c-3.1-1.7-5.5-4.1-7.2-7.2c-1.7-3.1-2.6-6.6-2.6-10.5c0-3.9,0.8-7.4,2.4-10.5c1.6-3.1,3.9-5.5,6.8-7.2
		c2.9-1.7,6.2-2.6,9.9-2.6C298.5,0.1,301.7,1,304.5,2.7z M285.7,8.6c-2.4,2.3-3.9,5.3-4.4,9h26.7c-0.4-3.7-1.7-6.8-4.1-9
		c-2.3-2.3-5.3-3.4-9-3.4C291.2,5.2,288.2,6.3,285.7,8.6z"/>
</g>
<polygon class="st0" points="27.4,0 27.4,9.8 18.9,14.9 10.6,11 "/>
<polygon class="st0" points="39.7,0 39.7,9.8 48.1,14.9 56.4,11 "/>
</svg>
