<?xml version="1.0" encoding="utf-8"?>
<!-- Generator: Adobe Illustrator 26.5.0, SVG Export Plug-In . SVG Version: 6.00 Build 0)  -->
<svg version="1.1" id="Capa_1" xmlns="http://www.w3.org/2000/svg" xmlns:xlink="http://www.w3.org/1999/xlink" x="0px" y="0px"
	 viewBox="0 0 394 80" style="enable-background:new 0 0 394 80;" xml:space="preserve">
<path d="M261.9,0h68.6v12.7h-27.2v66.6h-13.6V12.7h-27.8V0z"/>
<path d="M149.1,0v12.7H94v20.4h44.2v12.7H94v20.9h55v12.7H80.4V12.7h0V0H149.1z"/>
<path d="M183.3,0.1h-17.8l63.8,79.3h17.9l-31.9-39.6l31.9-39.6l-17.8,0l-23,28.5L183.3,0.1z"/>
<path d="M201.6,56.7l-8.9-11.1l-27.2,33.8h17.9L201.6,56.7z"/>
<path d="M80.9,79.3L17,0H0v79.3h13.6V17l50.2,62.4H80.9z"/>
<path d="M333.6,78.9c-1,0-1.8-0.3-2.6-1c-0.7-0.7-1.1-1.5-1.1-2.5c0-1,0.3-1.8,1.1-2.5s1.6-1,2.6-1c1,0,1.8,0.3,2.5,1
	c0.7,0.7,1.1,1.5,1.1,2.5c0,0.7-0.2,1.3-0.5,1.8c-0.3,0.5-0.8,1-1.3,1.3C334.8,78.7,334.3,78.9,333.6,78.9z"/>
<path d="M356.8,45.4h6v23.2c0,2.1-0.5,4-1.4,5.5c-0.9,1.5-2.2,2.7-3.8,3.5c-1.6,0.8-3.5,1.2-5.7,1.2c-2,0-3.7-0.4-5.3-1
	c-1.6-0.7-2.8-1.7-3.7-3.1c-0.9-1.4-1.4-3.1-1.4-5.1h6c0,0.9,0.2,1.7,0.6,2.3s0.9,1.1,1.6,1.5c0.7,0.3,1.5,0.5,2.4,0.5
	c1,0,1.8-0.2,2.5-0.6c0.7-0.4,1.2-1,1.5-1.8c0.4-0.8,0.5-1.8,0.5-2.9V45.4z"/>
<path d="M387.7,54.5c-0.1-1.4-0.8-2.5-1.9-3.3c-1.1-0.8-2.6-1.2-4.4-1.2c-1.3,0-2.4,0.2-3.3,0.6c-0.9,0.4-1.6,0.9-2.1,1.5
	c-0.5,0.6-0.7,1.4-0.7,2.2c0,0.7,0.2,1.3,0.5,1.8c0.3,0.5,0.8,0.9,1.3,1.3c0.6,0.4,1.2,0.6,1.8,0.9c0.7,0.2,1.4,0.4,2,0.6l3.1,0.8
	c1.3,0.3,2.5,0.7,3.7,1.2c1.2,0.5,2.2,1.1,3.2,1.9c0.9,0.8,1.7,1.7,2.2,2.7c0.5,1.1,0.8,2.3,0.8,3.7c0,1.9-0.5,3.6-1.5,5.1
	c-1,1.5-2.5,2.6-4.4,3.4c-1.9,0.8-4.2,1.2-6.9,1.2c-2.6,0-4.9-0.4-6.8-1.2c-1.9-0.8-3.4-2-4.5-3.5c-1.1-1.5-1.7-3.4-1.7-5.6h6
	c0.1,1.1,0.5,2.1,1.1,2.9c0.6,0.8,1.5,1.3,2.5,1.7c1,0.4,2.2,0.6,3.4,0.6c1.3,0,2.5-0.2,3.5-0.6c1-0.4,1.8-0.9,2.3-1.6
	c0.6-0.7,0.9-1.5,0.9-2.5c0-0.9-0.3-1.6-0.8-2.1c-0.5-0.6-1.2-1-2.1-1.4c-0.9-0.4-2-0.7-3.2-1l-3.8-1c-2.8-0.7-4.9-1.8-6.5-3.2
	c-1.6-1.4-2.4-3.3-2.4-5.7c0-1.9,0.5-3.7,1.6-5.1c1.1-1.5,2.5-2.6,4.4-3.4c1.9-0.8,4-1.2,6.3-1.2c2.4,0,4.5,0.4,6.3,1.2
	c1.8,0.8,3.2,1.9,4.2,3.4c1,1.4,1.6,3.1,1.6,4.9H387.7z"/>
</svg>
