<?xml version="1.0" encoding="utf-8"?>
<!-- Generator: Adobe Illustrator 26.5.0, SVG Export Plug-In . SVG Version: 6.00 Build 0)  -->
<svg version="1.1"
	 id="svg22" xmlns:sodipodi="http://sodipodi.sourceforge.net/DTD/sodipodi-0.dtd" xmlns:cc="http://creativecommons.org/ns#" xmlns:svg="http://www.w3.org/2000/svg" xmlns:inkscape="http://www.inkscape.org/namespaces/inkscape" xmlns:rdf="http://www.w3.org/1999/02/22-rdf-syntax-ns#" xmlns:dc="http://purl.org/dc/elements/1.1/"
	 xmlns="http://www.w3.org/2000/svg" xmlns:xlink="http://www.w3.org/1999/xlink" x="0px" y="0px" viewBox="0 0 109.9 18.7"
	 style="enable-background:new 0 0 109.9 18.7;" xml:space="preserve">
<style type="text/css">
	.st0{fill:#2C4A5D;}
	.st1{fill:#00C391;}
	.st2{fill:#00C492;}
	.st3{fill:#008776;}
	.st4{fill:#2D4A5D;}
</style>
<sodipodi:namedview  bordercolor="#666666" borderopacity="1" gridtolerance="10" guidetolerance="10" id="namedview24" inkscape:current-layer="svg22" inkscape:cx="30.795554" inkscape:cy="18.7365" inkscape:pageopacity="0" inkscape:pageshadow="2" inkscape:window-height="1001" inkscape:window-maximized="1" inkscape:window-width="1920" inkscape:window-x="-9" inkscape:window-y="-9" inkscape:zoom="4.3626521" objecttolerance="10" pagecolor="#ffffff" showgrid="false">
	</sodipodi:namedview>
<g id="Calque_1-2" transform="matrix(0.49989261,0,0,0.49989261,5.0603376,20.629685)">
	<path id="path8" inkscape:connector-curvature="0" class="st0" d="M77.3-30.2c0.3,0.3,0.5,0.7,0.4,1.2v22.4c0,0.5-0.2,0.9-0.5,1.3
		c-0.3,0.3-0.8,0.5-1.3,0.5c-0.3,0-0.5,0-0.8-0.1C75-5,74.8-5.1,74.6-5.3L60.1-24.2v17.8c0,0.9-0.7,1.6-1.5,1.6c0,0-0.1,0-0.1,0
		c-0.4,0-0.8-0.2-1.1-0.5C57-5.5,56.8-6,56.8-6.4v-22.5c0-0.5,0.2-0.9,0.5-1.3c0.3-0.3,0.8-0.5,1.2-0.5c0.3,0,0.6,0.1,0.9,0.2
		c0.2,0.1,0.5,0.3,0.6,0.5l14.5,19v-18c0-0.9,0.7-1.6,1.5-1.6c0,0,0,0,0,0c0,0,0.1,0,0.1,0C76.6-30.7,77-30.5,77.3-30.2L77.3-30.2z
		 M107.2-30.2c0.3,0.3,0.5,0.8,0.5,1.3v14.2c0,1.8-0.4,3.6-1.3,5.3c-0.8,1.5-2.1,2.8-3.6,3.6c-1.6,0.9-3.3,1.4-5.1,1.3
		c-1.8,0-3.6-0.4-5.2-1.3c-1.5-0.9-2.8-2.1-3.6-3.6c-0.9-1.6-1.3-3.4-1.3-5.3v-14.2c0-0.5,0.2-0.9,0.5-1.3c0.4-0.3,0.8-0.5,1.3-0.5
		c0.5,0,0.9,0.2,1.2,0.5c0.3,0.3,0.5,0.8,0.5,1.3v14.2c0,1.2,0.3,2.4,0.9,3.5c1.1,2,3.3,3.2,5.5,3.2c1.2,0,2.3-0.3,3.3-0.9
		c1-0.6,1.9-1.4,2.4-2.4c0.6-1,0.9-2.2,0.9-3.5v-14.2c0-0.5,0.1-0.9,0.4-1.3c0.3-0.3,0.8-0.5,1.2-0.5
		C106.4-30.7,106.9-30.5,107.2-30.2L107.2-30.2z M135.6-7.4c0.2,0.3,0.3,0.7,0.3,1.1c0,0.5-0.2,0.9-0.5,1.3
		c-0.3,0.3-0.8,0.5-1.2,0.5c-0.6,0-1.1-0.3-1.4-0.7l-7.2-9.6l-7,9.6c-0.3,0.5-0.9,0.8-1.4,0.8c-0.4,0-0.8-0.2-1.1-0.5
		c-0.3-0.3-0.5-0.7-0.5-1.1c0-0.4,0.2-0.9,0.4-1.2l7.6-10.3L116-27.9c-0.2-0.3-0.4-0.7-0.4-1.1c0-0.5,0.2-0.9,0.5-1.3
		c0.3-0.3,0.8-0.5,1.2-0.5c0.3,0,0.5,0.1,0.8,0.2c0.3,0.1,0.5,0.3,0.6,0.6l7.1,9.5l7-9.4c0.3-0.5,0.8-0.8,1.4-0.8
		c0.4,0,0.9,0.2,1.2,0.5c0.3,0.3,0.5,0.7,0.5,1.1c0,0.4-0.1,0.7-0.4,1.1l-7.7,10.3L135.6-7.4z M162.3-30.2c0.3,0.3,0.5,0.8,0.5,1.2
		c0,0.5-0.2,0.9-0.5,1.2c-0.4,0.3-0.8,0.5-1.3,0.4h-6.6v20.7c0,0.5-0.2,0.9-0.5,1.3c-0.8,0.7-1.9,0.7-2.7,0
		c-0.3-0.3-0.5-0.8-0.5-1.3v-20.7h-6.6c-0.5,0-0.9-0.1-1.3-0.5c-0.3-0.3-0.5-0.8-0.5-1.2c0-0.5,0.2-0.9,0.5-1.2
		c0.3-0.3,0.8-0.5,1.3-0.5H161C161.5-30.7,162-30.5,162.3-30.2z"/>
	<path id="path10" inkscape:connector-curvature="0" class="st1" d="M170.4-5.4c-1.2-0.7-2.2-1.7-2.9-2.8c-0.2-0.3-0.3-0.6-0.3-1
		c0-0.5,0.2-0.9,0.6-1.2c0.3-0.3,0.7-0.5,1.1-0.5c0.7,0.1,1.3,0.4,1.7,0.9c0.8,1.4,2.3,2.2,3.9,2.1c1.3,0,2.5-0.5,3.4-1.4
		c0.9-0.9,1.4-2.1,1.4-3.4v-16.2c0-0.5,0.2-0.9,0.6-1.3c0.3-0.3,0.8-0.5,1.3-0.5c0.5,0,1,0.2,1.3,0.5c0.3,0.3,0.5,0.8,0.5,1.3v16.2
		c0,1.5-0.4,2.9-1.1,4.1c-0.7,1.2-1.8,2.3-3,3c-1.3,0.8-2.8,1.1-4.3,1.1C173-4.4,171.6-4.7,170.4-5.4z M195.8-5.1
		c-1.5-0.6-2.8-1.4-4-2.5c-0.5-0.4-0.8-0.9-0.8-1.5c0-0.5,0.2-0.9,0.5-1.2c0.3-0.3,0.8-0.5,1.2-0.5c0.4,0,0.8,0.1,1.1,0.4
		c0.9,0.8,1.9,1.5,3,2c1.1,0.5,2.3,0.7,3.6,0.7c1.4,0,2.8-0.3,3.9-1.1c1-0.5,1.6-1.6,1.6-2.7c0-1.2-0.6-2.3-1.6-3
		c-1.5-0.9-3.1-1.5-4.8-1.8c-2.1-0.3-4.2-1.2-5.9-2.6c-1.4-1.2-2.1-3.1-2.1-4.9c0-1.4,0.4-2.7,1.2-3.9c0.8-1.1,1.9-2,3.2-2.5
		c1.4-0.6,3-0.9,4.6-0.9c1.5,0,2.9,0.2,4.3,0.7c1.2,0.4,2.3,1.1,3.3,2c0.5,0.4,0.8,1,0.9,1.6c0,0.4-0.2,0.9-0.5,1.2
		c-0.3,0.3-0.7,0.5-1.2,0.5c-0.3,0-0.6-0.1-0.8-0.3c-0.8-0.7-1.7-1.3-2.7-1.6c-1-0.4-2.1-0.6-3.2-0.6c-1.4-0.1-2.8,0.3-3.9,1
		c-1.5,1-1.9,3-0.9,4.5c0.2,0.4,0.6,0.7,0.9,0.9c1.3,0.8,2.8,1.3,4.3,1.6c1.6,0.3,3.2,0.8,4.7,1.5c1.1,0.5,2.1,1.3,2.8,2.4
		c0.7,1.2,1.1,2.6,1,4c0,1.4-0.4,2.7-1.2,3.8c-0.8,1.1-2,2-3.3,2.6c-1.4,0.6-3,0.9-4.5,0.9C199-4.3,197.4-4.6,195.8-5.1z"/>
	<path id="path12" inkscape:connector-curvature="0" class="st2" d="M5.2-5.1c0-0.1-0.1-0.1-0.1-0.2c-0.2-0.5-0.3-1-0.2-1.5H-7
		l17.7-31.2l5.8,10.2l1.7-3l-5.1-8.9c-0.5-0.9-1.4-1.5-2.5-1.6c-1.1,0-2,0.7-2.4,1.7L-9.7-8c-0.5,0.9-0.6,2-0.2,3
		c0.6,0.9,1.6,1.4,2.6,1.3h15C6.8-3.7,5.8-4.2,5.2-5.1z"/>
	<path id="path14" inkscape:connector-curvature="0" class="st3" d="M39.8-8L25-34c-0.5-0.9-1.4-1.6-2.5-1.7c-1.1,0-2,0.7-2.4,1.7
		l-1.9,3.3l1.7,3l2.6-4.7L37.2-6.7h-5.6c0.1,0.4,0,0.9-0.1,1.3c0,0.1-0.1,0.2-0.1,0.3l0,0.1c-0.6,0.9-1.6,1.4-2.7,1.3h8.7
		c1.1,0,2.1-0.5,2.7-1.3C40.5-6.1,40.4-7.2,39.8-8z"/>
	<path id="path16" inkscape:connector-curvature="0" class="st4" d="M31.3-5.1L31.3-5.1c0.1-0.2,0.1-0.3,0.2-0.4
		c0.1-0.4,0.2-0.8,0.1-1.3c-0.1-0.5-0.2-0.9-0.5-1.3L19.9-27.7l-1.7-3l-1.7,3L5.4-8C5.1-7.6,5-7.2,4.9-6.7c-0.1,0.5,0,1,0.2,1.5
		c0,0.1,0.1,0.1,0.1,0.2c0.6,0.9,1.6,1.4,2.6,1.3h20.8C29.7-3.8,30.7-4.3,31.3-5.1z M18.2-24.7l10.2,18H8L18.2-24.7z"/>
</g>
</svg>
