<?xml version="1.0" encoding="utf-8"?>
<!-- Generator: Adobe Illustrator 26.5.0, SVG Export Plug-In . SVG Version: 6.00 Build 0)  -->
<svg version="1.1" id="Capa_1" xmlns="http://www.w3.org/2000/svg" xmlns:xlink="http://www.w3.org/1999/xlink" x="0px" y="0px"
	 viewBox="0 0 103.2 35.1" style="enable-background:new 0 0 103.2 35.1;" xml:space="preserve">
<style type="text/css">
	.st0{fill-rule:evenodd;clip-rule:evenodd;fill:#00D8FF;}
	.st1{fill:none;stroke:#00D8FF;stroke-width:1.6627;stroke-miterlimit:10;}
</style>
<g transform="matrix(.06928 0 0 .06928 7.367398 13.505331)">
	<circle class="st0" cx="176" cy="58.2" r="50.2"/>
	<g>
		<path class="st1" d="M176-43.8c67.4,0,129.9,9.7,177.1,25.9c56.8,19.6,91.8,49.2,91.8,76.1c0,28-37,59.5-98.1,79.7
			c-46.1,15.3-106.9,23.3-170.8,23.3c-65.6,0-127.6-7.5-174.3-23.4c-59-20.2-94.6-52.1-94.6-79.6c0-26.6,33.4-56.1,89.4-75.6
			C43.9-33.9,108-43.8,176-43.8L176-43.8z"/>
		<path class="st1" d="M87.2,7.5c33.6-58.3,73.3-107.7,110.9-140.5c45.4-39.5,88.5-54.9,111.8-41.5c24.2,14,33,61.8,20.1,124.8
			c-9.8,47.6-33.2,104.2-65.2,159.6c-32.8,56.8-70.3,106.8-107.4,139.3c-47,41.1-92.4,55.9-116.2,42.2
			c-23.1-13.3-31.9-56.9-20.8-115.2C29.7,126.9,53.2,66.4,87.2,7.5L87.2,7.5z"/>
		<path class="st1" d="M87.3,110C53.5,51.8,30.6-7.2,21-56.2c-11.5-59-3.4-104.1,19.9-117.6c24.2-14,70.1,2.2,118.1,44.9
			C195.3-96.6,232.7-48,264.7,7.3c32.8,56.7,57.5,114.2,67,162.6c12.1,61.2,2.3,108-21.5,121.7C287.2,305,245,290.9,200,252.2
			C162,219.5,121.4,168.9,87.3,110L87.3,110z"/>
	</g>
</g>
<path class="st0" d="M58.1,26.4L53.9,20c2.2-0.2,4.1-1.8,4.1-4.6c0-2.9-2.1-4.8-4.9-4.8h-6.3v15.8h2v-6.3h3.1l4,6.3L58.1,26.4z
	 M52.8,18.4h-4.1v-6h4.1c1.9,0,3.1,1.2,3.1,3S54.7,18.4,52.8,18.4L52.8,18.4z M65.5,26.7c1.9,0,3.4-0.6,4.5-1.8l-0.9-1.2
	c-0.9,0.9-2.2,1.4-3.5,1.4c-2.5,0-4-1.8-4.1-4h9.3v-0.5c0-3.4-2-6.1-5.5-6.1c-3.3,0-5.6,2.7-5.6,6C59.6,24.3,62.1,26.7,65.5,26.7
	L65.5,26.7z M69,20h-7.5c0.1-1.8,1.3-3.8,3.7-3.8C67.8,16.2,69,18.3,69,20z M82.5,26.4v-7.9c0-2.8-2-3.9-4.4-3.9
	c-1.9,0-3.3,0.6-4.6,1.9l0.8,1.2c1-1.1,2.1-1.6,3.5-1.6c1.7,0,2.9,0.9,2.9,2.4v2.1c-0.9-1.1-2.2-1.6-3.8-1.6c-1.9,0-4,1.2-4,3.8
	c0,2.5,2.1,3.8,4,3.8c1.5,0,2.8-0.5,3.8-1.6v1.3L82.5,26.4z M77.6,25.4c-1.7,0-2.8-1-2.8-2.5c0-1.5,1.2-2.5,2.8-2.5
	c1.3,0,2.5,0.5,3.1,1.4V24C80.1,24.9,78.9,25.4,77.6,25.4L77.6,25.4z M91.1,26.7c2.1,0,3.3-0.9,4.2-2l-1.2-1.1
	c-0.8,1-1.7,1.5-2.9,1.5c-2.4,0-3.9-1.9-3.9-4.4s1.5-4.4,3.9-4.4c1.2,0,2.2,0.5,2.9,1.5l1.2-1.1c-0.9-1.1-2.1-2-4.2-2
	c-3.4,0-5.7,2.6-5.7,6C85.4,24.1,87.7,26.7,91.1,26.7L91.1,26.7z M100.7,26.7c1,0,1.7-0.3,2.1-0.7l-0.5-1.3
	c-0.2,0.3-0.7,0.5-1.2,0.5c-0.8,0-1.2-0.6-1.2-1.5v-7.1h2.3V15h-2.3v-3.1h-1.8V15h-1.9v1.6h1.9V24C98.1,25.7,99,26.7,100.7,26.7
	L100.7,26.7z"/>
</svg>
