<?xml version="1.0" encoding="utf-8"?>
<!-- Generator: Adobe Illustrator 26.5.0, SVG Export Plug-In . SVG Version: 6.00 Build 0)  -->
<svg version="1.1" id="Capa_1" xmlns="http://www.w3.org/2000/svg" xmlns:xlink="http://www.w3.org/1999/xlink" x="0px" y="0px"
	 viewBox="0 0 264 50" style="enable-background:new 0 0 264 50;" xml:space="preserve">
<style type="text/css">
	.st0{filter:url(#Adobe_OpacityMaskFilter);}
	.st1{fill-rule:evenodd;clip-rule:evenodd;fill:#FFFFFF;}
	.st2{mask:url(#b_00000063603770398740801910000002730620168404631182_);fill-rule:evenodd;clip-rule:evenodd;fill:#EC0000;}
</style>
<g transform="translate(1 2)">
	<defs>
		<filter id="Adobe_OpacityMaskFilter" filterUnits="userSpaceOnUse" x="0" y="0" width="262.3" height="46">
			<feColorMatrix  type="matrix" values="1 0 0 0 0  0 1 0 0 0  0 0 1 0 0  0 0 0 1 0"/>
		</filter>
	</defs>
	
		<mask maskUnits="userSpaceOnUse" x="0" y="0" width="262.3" height="46" id="b_00000063603770398740801910000002730620168404631182_">
		<g class="st0">
			<path id="a_00000152975435351478701790000017184621980968977061_" class="st1" d="M0,0h262.3v46H0V0z"/>
		</g>
	</mask>
	<path class="st2" d="M262.3,20.6c0,1.5-0.2,3.3-0.5,4.3c-1.2-0.1-2.4-0.2-3.8-0.2c-1.2,0-2.4,0.1-3.7,0.3v19.4h-5V21.7
		c2.1-0.7,5.7-1.3,8.5-1.3C259.5,20.5,261.2,20.5,262.3,20.6 M228.8,30.5h11.3c0-3.7-2-5.9-5.4-5.9
		C231.1,24.6,229.3,26.7,228.8,30.5 M244.9,34.7h-15.9c0.6,4,3,6,7.4,6c2.7,0,5.5-0.6,8-1.7c-0.2,1.5-0.5,3-0.8,4.5
		c-2.3,1-4.7,1.5-7.4,1.5c-8.4,0-12.4-4.6-12.4-12.4c0-6.8,3.1-12.1,11.1-12.1c7.1,0,10.2,4.7,10.2,10.4
		C245.1,32.3,245,33.4,244.9,34.7 M214.8,39.2v-14c-1.3-0.3-2.7-0.5-4-0.5c-4.9,0-7.3,3.1-7.3,8.3c0,4.6,1.9,7.9,6.3,7.9
		C211.8,40.9,213.5,40.2,214.8,39.2 M219.8,12.7v31.8h-4.6l-0.3-2.9c-1.3,2.1-3.2,3.4-6.5,3.4c-6,0-10-4.4-10-12
		c0-8,4.3-12.5,12.7-12.5c1.3,0,2.5,0.1,3.7,0.4v-7.5C216.4,12.8,218.1,12.7,219.8,12.7 M194.5,29.2v15.2h-5V30
		c0-3.6-1.2-5.3-6.2-5.3c-1.2,0-2.6,0.1-3.9,0.4v19.3h-5V21.7c3.2-0.8,6.7-1.3,9.1-1.3C191.8,20.5,194.5,23.7,194.5,29.2
		 M163.9,39.2V25c-1-0.2-2.2-0.3-3.6-0.3c-5.2,0-7.6,3.2-7.6,8.3c0,4.6,1.9,7.9,6.3,7.9C161,40.9,162.6,40.2,163.9,39.2 M168.9,21.7
		v22.7h-4.6l-0.3-2.7c-1.3,2-3.2,3.3-6.4,3.3c-6,0-10-4.4-10-12c0-8,4.3-12.5,12.7-12.5C163.6,20.5,166.3,20.8,168.9,21.7
		 M142.1,40.7c1.5,0,2.8-0.3,3.9-0.7c-0.1,1.4-0.3,2.9-0.6,4.2c-1.4,0.5-2.8,0.7-4.2,0.7c-4.9,0-7.9-2.2-7.9-7.8V13.4
		c1.5-0.5,3.4-0.7,5-0.7v8.6h7.9c-0.1,1.5-0.2,3-0.5,4.3h-7.4v11.1C138.3,39.6,139.7,40.7,142.1,40.7 M128.3,29.2v15.2h-5V30
		c0-3.6-1.2-5.3-6.2-5.3c-1.2,0-2.6,0.1-3.9,0.4v19.3h-5V21.7c3.2-0.8,6.7-1.3,9.1-1.3C125.6,20.5,128.3,23.7,128.3,29.2 M97.8,39.2
		V25c-1-0.2-2.2-0.3-3.6-0.3c-5.2,0-7.6,3.2-7.6,8.3c0,4.6,1.9,7.9,6.3,7.9C94.9,40.9,96.4,40.2,97.8,39.2 M102.8,21.7v22.7h-4.6
		l-0.3-2.7c-1.3,2-3.2,3.3-6.4,3.3c-6,0-10-4.4-10-12c0-8,4.3-12.5,12.7-12.5C97.4,20.5,100.1,20.8,102.8,21.7 M57.4,43.4
		c0.1-1.9,0.4-3.1,0.9-4.6c2.5,1.2,5.8,1.8,8.3,1.8c4.2,0,6.6-1.4,6.6-4c0-2.6-1.7-3.9-6-5.7l-2.3-1c-4.3-1.9-7.2-4.3-7.2-9.1
		c0-5.2,3.6-8.5,10.9-8.5c2.9,0,5.7,0.4,8.3,1.3c-0.1,1.8-0.5,3.2-0.9,4.5c-2.4-0.9-5.4-1.3-7.4-1.3c-3.9,0-5.8,1.5-5.8,3.9
		c0,2.4,1.8,3.7,4.9,5.1l2.4,1c5.8,2.5,8.2,5,8.2,9.4c0,5.2-3.9,8.8-11.7,8.8C63,45.1,60,44.6,57.4,43.4 M34.6,21.1
		c-0.1-1.7-0.6-3.3-1.4-4.8L25.7,3.2c-0.6-1-1-2.1-1.2-3.2l-0.3,0.5c-1.9,3.2-1.9,7.2,0,10.5l6,10.5c1.9,3.2,1.9,7.2,0,10.5
		l-0.3,0.5c-0.2-1.1-0.6-2.2-1.2-3.2l-5.5-9.6l-3.5-6.1c-0.6-1-1-2.1-1.2-3.2L18.1,11c-1.9,3.2-1.9,7.2,0,10.4L24.2,32
		c1.9,3.2,1.9,7.2,0,10.5L23.8,43c-0.2-1.1-0.6-2.2-1.2-3.2l-7.6-13.1c-1-1.7-1.5-3.7-1.4-5.7C5.6,23.2,0,27.7,0,32.9
		C0,40.1,10.8,46,24.2,46s24.2-5.9,24.2-13.1C48.3,27.7,42.7,23.2,34.6,21.1"/>
</g>
</svg>
