<?xml version="1.0" encoding="utf-8"?>
<!-- Generator: Adobe Illustrator 26.5.0, SVG Export Plug-In . SVG Version: 6.00 Build 0)  -->
<svg version="1.1"
	 id="svg901" xmlns:sodipodi="http://sodipodi.sourceforge.net/DTD/sodipodi-0.dtd" xmlns:cc="http://creativecommons.org/ns#" xmlns:svg="http://www.w3.org/2000/svg" xmlns:inkscape="http://www.inkscape.org/namespaces/inkscape" xmlns:rdf="http://www.w3.org/1999/02/22-rdf-syntax-ns#" xmlns:dc="http://purl.org/dc/elements/1.1/"
	 xmlns="http://www.w3.org/2000/svg" xmlns:xlink="http://www.w3.org/1999/xlink" x="0px" y="0px" viewBox="0 0 104.8 36.9"
	 style="enable-background:new 0 0 104.8 36.9;" xml:space="preserve">
<style type="text/css">
	.st0{fill-rule:evenodd;clip-rule:evenodd;fill:#41B883;}
	.st1{fill-rule:evenodd;clip-rule:evenodd;fill:#35495E;}
	.st2{fill-rule:evenodd;clip-rule:evenodd;fill:#010101;}
</style>
<sodipodi:namedview  bordercolor="#666666" borderopacity="1" gridtolerance="10" guidetolerance="10" id="namedview903" inkscape:current-layer="svg901" inkscape:cx="37.31392" inkscape:cy="46" inkscape:pagecheckerboard="true" inkscape:pageopacity="0" inkscape:pageshadow="2" inkscape:window-height="702" inkscape:window-maximized="0" inkscape:window-width="1506" inkscape:window-x="70" inkscape:window-y="27" inkscape:zoom="1.4605809" objecttolerance="10" pagecolor="#ffffff" showgrid="false">
	</sodipodi:namedview>
<path id="path893" inkscape:connector-curvature="0" class="st0" d="M34.5,0H43L21.6,36.9L0,0h8.7l12.9,22.2L34.5,0z"/>
<path id="path895" inkscape:connector-curvature="0" class="st1" d="M26.5,0h8.1l-13,22.3L8.7,0h7.9l5,8.6L26.5,0z"/>
<path id="path897" inkscape:connector-curvature="0" class="st2" d="M48,7.3c0-0.3,0.2-0.5,0.5-0.7c0.3-0.2,0.6-0.3,0.9-0.3
	c0.5,0,0.7,0.2,0.9,0.5L55.1,23l4.8-16.2c0.1-0.3,0.4-0.5,0.8-0.5c0.3,0,0.7,0.1,1,0.3c0.3,0.2,0.5,0.4,0.5,0.7c0,0,0,0,0,0.1
	c0,0,0,0.1,0,0.1l-5.6,18.1c-0.2,0.5-0.7,0.8-1.5,0.8c-0.8,0-1.2-0.3-1.4-0.8L48.1,7.5C48.1,7.4,48,7.3,48,7.3L48,7.3z M62.4,21.2
	v-7.1c0-0.2,0.1-0.4,0.3-0.6c0.2-0.2,0.5-0.2,0.8-0.2c0.3,0,0.6,0.1,0.8,0.3c0.2,0.2,0.3,0.4,0.3,0.6v7.1c0,0.8,0.3,1.6,0.9,2.2
	s1.4,1,2.2,1c0.8,0,1.6-0.3,2.2-1s0.9-1.4,0.9-2.2v-7.1c0-0.2,0.1-0.4,0.3-0.5c0.2-0.2,0.5-0.2,0.8-0.2c0.3,0,0.6,0.1,0.8,0.2
	c0.2,0.2,0.3,0.3,0.3,0.6v7.1c0,1.4-0.5,2.6-1.6,3.7c-1.1,1-2.3,1.6-3.8,1.6c-1.5,0-2.8-0.5-3.8-1.6C62.9,23.8,62.4,22.6,62.4,21.2
	L62.4,21.2z M75.1,21.2v-2.9c0-1.4,0.5-2.6,1.6-3.6c1.1-1,2.4-1.5,3.9-1.5c1.4,0,2.7,0.5,3.7,1.4c1,1,1.6,2.1,1.6,3.6
	c0,0.5-0.1,0.9-0.2,1.3c-0.1,0.3-0.3,0.5-0.6,0.7c-0.3,0.1-0.5,0.2-0.7,0.3c-0.2,0-0.5,0.1-0.9,0.1h-6v0.8c0,1,0.4,1.8,1.1,2.4
	c0.7,0.6,1.7,0.9,2.8,0.9c0.6,0,1.1-0.1,1.6-0.3c0.4-0.2,0.8-0.4,1.1-0.5c0.3-0.2,0.5-0.3,0.7-0.3c0.3,0,0.5,0.1,0.7,0.3
	c0.2,0.2,0.3,0.5,0.3,0.7c0,0.4-0.4,0.8-1.3,1.3c-0.8,0.4-1.9,0.7-3.1,0.7c-1.8,0-3.3-0.5-4.4-1.5C75.7,24,75.1,22.7,75.1,21.2
	L75.1,21.2z M77.4,18.9h5.1c0.5,0,0.8-0.1,1-0.2s0.2-0.3,0.2-0.7c0-0.8-0.3-1.5-0.9-2.2c-0.6-0.6-1.3-0.9-2.2-0.9
	c-0.9,0-1.6,0.3-2.2,0.9c-0.6,0.6-0.9,1.3-0.9,2.1L77.4,18.9z M87,25c0-0.4,0.1-0.7,0.4-1c0.3-0.3,0.6-0.4,1-0.4
	c0.4,0,0.7,0.1,1,0.4c0.3,0.3,0.4,0.6,0.4,1c0,0.4-0.1,0.7-0.4,1c-0.3,0.3-0.6,0.4-1,0.4c-0.4,0-0.7-0.1-1-0.4
	C87.2,25.7,87,25.4,87,25z M89.1,31.5c0-0.3,0.1-0.5,0.3-0.7c0.2-0.2,0.4-0.3,0.7-0.3c0.7,0,1.2-0.3,1.4-0.8
	c0.2-0.5,0.3-1.3,0.3-2.4V14.1c0-0.2,0.1-0.4,0.3-0.6c0.2-0.1,0.5-0.2,0.8-0.2c0.3,0,0.6,0.1,0.8,0.2c0.2,0.1,0.3,0.3,0.3,0.6v13.2
	c0,1.6-0.3,2.8-0.9,3.8c-0.6,0.9-1.6,1.4-2.8,1.4C89.4,32.5,89.1,32.1,89.1,31.5L89.1,31.5z M91.4,8.5c0-0.3,0.1-0.6,0.4-0.9
	c0.3-0.3,0.6-0.4,1-0.4c0.4,0,0.7,0.1,1,0.4c0.3,0.3,0.4,0.6,0.4,0.9s-0.1,0.6-0.4,0.9c-0.3,0.3-0.6,0.4-1,0.4s-0.7-0.1-1-0.4
	C91.6,9.1,91.4,8.8,91.4,8.5L91.4,8.5z M95.7,24.4c0-0.2,0.1-0.5,0.2-0.7c0.2-0.2,0.3-0.3,0.6-0.3c0.1,0,0.4,0.1,0.6,0.3
	c0.3,0.2,0.7,0.4,1.2,0.6c0.5,0.2,1.1,0.3,1.8,0.3c0.9,0,1.6-0.2,2-0.5c0.4-0.3,0.6-0.7,0.6-1.2c0-0.6-0.2-1.1-0.7-1.4
	c-0.5-0.4-1-0.6-1.7-0.8c-0.7-0.2-1.3-0.4-2-0.6c-0.7-0.2-1.2-0.6-1.7-1.1c-0.5-0.5-0.7-1.2-0.7-2c0-1,0.4-1.9,1.1-2.7
	c0.7-0.8,1.9-1.1,3.4-1.1c1,0,1.9,0.1,2.7,0.4c0.8,0.3,1.2,0.6,1.2,1c0,0.2-0.1,0.5-0.3,0.7c-0.2,0.3-0.4,0.4-0.6,0.4
	c-0.1,0-0.4-0.1-1.1-0.4c-0.6-0.3-1.3-0.4-1.9-0.4c-0.8,0-1.5,0.2-1.9,0.6c-0.4,0.4-0.6,0.8-0.6,1.3c0,0.5,0.2,0.9,0.7,1.2
	c0.5,0.3,1,0.5,1.7,0.7c0.7,0.2,1.3,0.4,2,0.6c0.7,0.2,1.2,0.6,1.7,1.2c0.5,0.6,0.7,1.3,0.7,2.2c0,1.1-0.4,2-1.2,2.7
	c-0.8,0.7-1.9,1-3.4,1c-1.2,0-2.3-0.2-3.2-0.7C96.1,25.3,95.7,24.9,95.7,24.4L95.7,24.4z"/>
</svg>
