<?xml version="1.0" encoding="utf-8"?>
<!-- Generator: Adobe Illustrator 26.5.0, SVG Export Plug-In . SVG Version: 6.00 Build 0)  -->
<svg version="1.1" id="Capa_1" xmlns="http://www.w3.org/2000/svg" xmlns:xlink="http://www.w3.org/1999/xlink" x="0px" y="0px"
	 viewBox="0 0 120 24.2" style="enable-background:new 0 0 120 24.2;" xml:space="preserve">
<style type="text/css">
	.st0{fill:#00749A;}
</style>
<path class="st0" d="M68,8.9h-4.9v0.5c1.5,0,1.8,0.3,1.8,2.2v3.5c0,1.9-0.3,2.3-1.8,2.3c-1.2-0.2-2-0.8-3.1-2l-1.3-1.4
	c1.7-0.3,2.6-1.4,2.6-2.5c0-1.5-1.3-2.6-3.7-2.6h-4.8v0.5c1.5,0,1.8,0.3,1.8,2.2v3.5c0,1.9-0.3,2.3-1.8,2.3v0.5h5.4v-0.5
	c-1.5,0-1.8-0.4-1.8-2.3v-1H57l3,3.8h7.9c3.9,0,5.6-2.1,5.6-4.5C73.6,11,71.9,8.9,68,8.9L68,8.9z M56.6,13.4V9.8h1.1
	c1.2,0,1.8,0.9,1.8,1.8s-0.6,1.8-1.8,1.8L56.6,13.4z M68.1,17.1h-0.2c-1,0-1.1-0.3-1.1-1.5V9.8h1.3c2.8,0,3.4,2.1,3.4,3.7
	C71.4,15.1,70.9,17.1,68.1,17.1L68.1,17.1z M37.8,14.4l1.9-5.5c0.6-1.6,0.3-2.1-1.4-2.1V6.2h5.1v0.6c-1.7,0-2.1,0.4-2.8,2.4
	l-3.1,9.3h-0.4L34.3,10l-2.8,8.5h-0.4l-3-9.3c-0.7-2-1.1-2.4-2.6-2.4V6.2h6v0.6c-1.6,0-2,0.4-1.5,2.1l1.8,5.5l2.7-8.2h0.5L37.8,14.4
	z M47,18.4c-3,0-5.4-2.2-5.4-4.9c0-2.6,2.4-4.9,5.4-4.9c3,0,5.4,2.2,5.4,4.9S50.1,18.4,47,18.4z M47,9.4c-2.5,0-3.4,2.2-3.4,4
	s0.9,4,3.4,4c2.5,0,3.4-2.2,3.4-4C50.5,11.7,49.6,9.4,47,9.4z M80.3,17.4V18H74v-0.6c1.8,0,2.1-0.5,2.1-3.2V9.9
	c0-2.7-0.3-3.2-2.1-3.2V6.2h5.6c2.8,0,4.4,1.4,4.4,3.4c0,1.9-1.6,3.4-4.4,3.4h-1.5v1.4C78.2,17,78.5,17.4,80.3,17.4L80.3,17.4z
	 M79.7,7.2h-1.5v4.7h1.5c1.5,0,2.2-1.1,2.2-2.3S81.2,7.2,79.7,7.2z M102.7,15.5l-0.2,0.5c-0.3,0.9-0.6,1.2-2.5,1.2h-0.4
	c-1.4,0-1.7-0.3-1.7-2.2v-1.3c2.1,0,2.3,0.2,2.3,1.6h0.5v-4.1h-0.5c0,1.4-0.2,1.6-2.3,1.6v-3h1.5c1.9,0,2.2,0.3,2.5,1.2l0.2,0.5h0.5
	L102.4,9h-8v0.5c1.5,0,1.8,0.3,1.8,2.2v3.5c0,1.8-0.2,2.2-1.4,2.3c-1.1-0.2-1.9-0.8-3-2l-1.3-1.4c1.7-0.3,2.6-1.4,2.6-2.5
	c0-1.5-1.3-2.6-3.7-2.6h-4.8v0.5c1.5,0,1.8,0.3,1.8,2.2v3.5c0,1.9-0.3,2.3-1.8,2.3v0.5h5.4v-0.5c-1.5,0-1.8-0.4-1.8-2.3v-1h0.5
	l3,3.8h11.2l0.2-2.5L102.7,15.5L102.7,15.5z M88.3,13.4V9.8h1.1c1.2,0,1.8,0.9,1.8,1.8s-0.6,1.8-1.8,1.8H88.3z"/>
<g>
	<path id="B" class="st0" d="M108.2,18.4c-1.1,0-2-0.6-2.4-0.9c-0.2,0.2-0.4,0.6-0.5,0.9h-0.5v-3.8h0.6c0.2,1.8,1.5,2.8,3.1,2.8
		c0.9,0,1.6-0.5,1.6-1.3c0-0.7-0.6-1.3-1.7-1.8l-1.5-0.7c-1.1-0.5-1.9-1.4-1.9-2.6c0-1.3,1.2-2.4,2.9-2.4c0.9,0,1.7,0.3,2.1,0.7
		c0.2-0.1,0.3-0.4,0.4-0.7h0.5v3.2h-0.6c-0.2-1.3-0.9-2.3-2.3-2.3c-0.8,0-1.5,0.5-1.5,1.1c0,0.7,0.6,1.1,1.9,1.7l1.5,0.7
		c1.3,0.6,1.8,1.6,1.8,2.4C111.6,17.1,110.1,18.4,108.2,18.4L108.2,18.4z"/>
</g>
<g>
	<path id="B_00000111185311871914758770000002570942425893082797_" class="st0" d="M116.6,18.4c-1.1,0-2-0.6-2.4-0.9
		c-0.2,0.2-0.4,0.6-0.5,0.9h-0.5v-3.8h0.6c0.2,1.8,1.5,2.8,3.1,2.8c0.9,0,1.6-0.5,1.6-1.3c0-0.7-0.6-1.3-1.7-1.8l-1.5-0.7
		c-1.1-0.5-1.9-1.4-1.9-2.6c0-1.3,1.2-2.4,2.9-2.4c0.9,0,1.7,0.3,2.1,0.7c0.2-0.1,0.3-0.4,0.4-0.7h0.5v3.2h-0.6
		c-0.2-1.3-0.9-2.3-2.3-2.3c-0.8,0-1.5,0.5-1.5,1.1c0,0.7,0.6,1.1,1.9,1.7l1.5,0.7c1.3,0.6,1.8,1.6,1.8,2.4
		C119.9,17.1,118.5,18.4,116.6,18.4L116.6,18.4z"/>
</g>
<path class="st0" d="M1.7,12.1c0,4.1,2.4,7.7,5.8,9.3L2.6,7.9C2.1,9.2,1.7,10.6,1.7,12.1L1.7,12.1z M19.1,11.6
	c0-1.3-0.5-2.2-0.9-2.8c-0.5-0.9-1-1.6-1-2.5c0-1,0.7-1.8,1.8-1.8h0.1c-1.8-1.7-4.3-2.7-7-2.7c-3.6,0-6.8,1.9-8.7,4.7h0.7
	c1.1,0,2.8-0.1,2.8-0.1c0.6,0,0.6,0.8,0.1,0.9c0,0-0.6,0.1-1.2,0.1l3.8,11.2l2.3-6.8l-1.6-4.4L9.1,7.1c-0.6,0-0.5-0.9,0-0.9
	c0,0,1.7,0.1,2.7,0.1c1.1,0,2.8-0.1,2.8-0.1c0.6,0,0.6,0.8,0.1,0.9c0,0-0.6,0.1-1.2,0.1l3.8,11.2l1.1-3.5
	C18.8,13.5,19.1,12.5,19.1,11.6L19.1,11.6z M12.3,13l-3.1,9c0.9,0.3,1.9,0.4,2.9,0.4c1.2,0,2.4-0.2,3.5-0.6c0,0,0-0.1-0.1-0.1
	L12.3,13z M21.2,7.1l0.1,1.1c0,1.1-0.2,2.2-0.8,3.7l-3.1,9.2c3.1-1.8,5.2-5.1,5.2-9C22.5,10.3,22,8.6,21.2,7.1L21.2,7.1z M12.1,0
	C5.4,0,0,5.4,0,12.1s5.4,12.1,12.1,12.1s12.1-5.4,12.1-12.1S18.7,0,12.1,0z M12.1,23.7c-6.4,0-11.5-5.2-11.5-11.6
	c0-6.4,5.2-11.5,11.5-11.5s11.5,5.2,11.5,11.5C23.6,18.5,18.4,23.7,12.1,23.7z"/>
</svg>
